<svg xmlns="http://www.w3.org/2000/svg" width="1344" height="934" viewBox="0 0 1344 934" fill="none">
<path d="M678.073 332.809L784.395 304.521C785.384 304.258 785.386 302.856 784.399 302.59L630.997 261.156C623.638 258.597 619.384 258.614 617.432 259.15C616.833 259.315 616.801 260.015 617.262 260.433C627.448 269.664 621.18 276.054 615.166 278.894C614.347 279.281 614.296 280.513 615.12 280.893L651.115 297.47C651.165 297.493 651.218 297.512 651.271 297.526C668.979 302.404 675.087 320.066 675.927 328.299C676.3 331.65 677.273 332.684 677.818 332.825C677.902 332.847 677.989 332.831 678.073 332.809Z" fill="#808080" class="accent1mainbody33" old-color="#808080" data-selected="done"/>
<path d="M588.086 268.729L605.254 277.092C606.099 277.504 607.139 276.565 606.994 275.636C606.327 271.355 607.711 266.029 609.013 262.552C609.306 261.77 608.606 260.941 607.795 261.139L589.205 265.673C589.133 265.691 589.06 265.718 588.993 265.752C585.891 267.338 587.088 268.396 588.086 268.729Z" fill="#808080"/>
<path d="M849.5 1.0705L837 8.5705C821.4 18.5706 807.167 24.7371 802 26.5703C791.2 33.3703 751.833 36.4036 733.5 37.0703L693.5 41.5703C679.5 41.9703 680 59.0703 682 67.5703L704 140.57L790 139.07L868.5 144.07C882.5 145.67 892.333 138.07 895.5 134.07L903 124.07L933.5 83.5703L929 77.0703L882.5 14.5705C870.5 -1.4295 855.5 -1.09617 849.5 1.0705Z" fill="#232020" class="accent1mainbody33" old-color="#232020" data-selected="done"/>
<path d="M894.5 301.07C897.7 299.47 895.167 296.737 893.5 295.57L881 280.57L851 245.57L825.5 214.57L804.5 189.57L786.5 167.07L769.5 139.07C760.3 122.67 783.333 125.237 796 128.57L821.5 133.57L838 136.57L796 88.5703L757.5 38.5703H749L815 120.07L810 119.07L791 116.07L774 114.07L734 111.07C722 111.47 717.333 106.904 716.5 104.57L696 47.5703L694.5 46.5703C685.7 48.9703 689.167 60.237 692 65.5703L700.5 89.5703L713.5 125.57C719.9 151.57 749.5 180.404 763.5 191.57L816.5 241.57L879.5 302.07C882.7 307.27 885.833 306.57 887 305.57L894.5 301.07Z" fill="#808080"/>
<path d="M712.5 96.0703L697 48.5703L743 40.0703L802 113.07L728.5 105.07C716.1 105.07 712.667 99.0703 712.5 96.0703Z" fill="#B34747" class="accent1mainbody33" old-color="#B34747" data-selected="done"/>
<path d="M755 175.07L751.5 160.57H755L850 252.07L835 250.57L807 223.57L768 186.07L755 175.07Z" fill="#996262"/>
<path d="M933.5 83.5703L903 124.57C915 125.77 928.333 145.404 933.5 155.07L936 177.07L942.5 280.57L955.5 279.57L957.5 245.57L959 198.57L957.5 137.07C956.7 117.07 952.167 107.404 950 105.07L933.5 83.5703Z" fill="#808080"/>
<path d="M1232.5 392.57C1210.9 373.37 1186.17 361.904 1176.5 358.57L1115.5 404.57C1129.5 410.57 1155.33 430.737 1166.5 440.07L1225 497.57L1241 502.07L1252 505.07L1262.5 506.57L1307.5 513.07L1327.5 516.07C1345.5 520.07 1345 509.737 1342.5 504.07L1335 483.57C1331.8 471.17 1322 461.07 1317.5 457.57L1272 421.07L1232.5 392.57Z" fill="#954848"/>
<path d="M769.5 525.57L680 615.57L641.5 605.57L669 485.07L769.5 525.57Z" fill="#502929"/>
<path d="M183 464.07L279.5 444.57L179.5 411.07L137.5 421.57L45.5 442.57L0.5 452.07L16 485.57C22.4 505.97 38.3333 516.07 45.5 518.57L90 543.07L147.5 572.07L190.5 592.07C196.5 588.47 201.333 587.904 203 588.07L202 586.07L186 573.57C179.2 569.97 175.167 560.07 174 555.57L168 539.07L163.5 525.57L154 497.07C145.6 475.47 159.833 468.737 168 468.07L183 464.07Z" fill="#693939" class="accent2numberplatefront1" old-color="#693939" data-selected="done"/>
<path d="M814 312.07L849.5 323.07L848.5 329.07H837.5C833.9 322.67 825 324.57 820 325.07L709.5 346.07L702 343.07L757.5 327.07L814 312.07Z" fill="#C6A1A1"/>
<path d="M919 394.768L965 361.268L863 330.268C836.2 322.268 811.833 326.268 803 329.268L789.5 331.768L766 336.768L731.5 343.768C719.9 348.168 708.333 346.602 704 345.268L696 342.768L635 369.268C609.8 389.668 555.167 391.768 531 390.268H509L375 382.768C331.4 379.168 298.5 381.268 287.5 382.768L200 405.768L222.5 413.268L316.5 410.768C412.1 410.768 497.667 418.435 528.5 422.268C568.9 422.268 627 432.268 651 437.268C667.5 442.07 665.667 450.237 664.5 456.57L663.5 464.268L636 598.768C633.2 610.768 637.167 613.435 639.5 613.268L666.5 622.268C678.5 627.468 686.5 621.768 689 618.268L694.5 613.268L704.5 603.268L722.5 583.768L741.5 563.768L764.5 539.268L791 511.768L812.5 489.268L835 467.268L867.5 437.268L883 422.268L919 394.768Z" fill="#4A1D1D" class="accent2numberplatefront1" old-color="#4A1D1D" data-selected="done"/>
<path d="M791.5 505.07L775.5 519.57L670 477.07L673.5 446.07L789.5 490.07L791.5 505.07Z" fill="#913C3C"/>
<path d="M701.5 344.57L674.5 334.07L786.5 304.07L814.5 312.57L701.5 344.57Z" fill="#734B4B"/>
<path d="M164.052 390.561L216.052 411.061L223.552 413.062H348.052H400.052L451.552 415.062L509.052 419.562L582.552 425.562C642.152 431.562 662.052 439.728 664.552 443.062L799.052 506.062L839.052 466.062L881.552 425.562L902.552 409.562L916.552 398.562L943.052 377.562L967.552 360.562L894.052 339.562C847.886 320.458 825.723 324.034 810.234 326.533L810 326.57L754.052 337.562C720.5 345.07 704.386 346.062 698.052 343.062L678.552 335.562L512.052 281.561C495.652 273.161 487.552 275.395 485.552 277.561L175.552 378.561C154.752 384.161 159.219 388.895 164.052 390.561Z" fill="#704444" class="accent1numberplatefront1" old-color="#704444" data-selected="done"/>
<path d="M800.5 255.07C798.9 275.47 793.833 295.57 791.5 303.07L855 323.07L873.5 307.57L872.5 306.07L863.5 300.57L855 295.07L846.5 289.07L842 285.57L833 279.07L818.5 268.57L808 260.57L800.5 255.07Z" fill="#D9D9D9"/>
<path d="M1120.5 465.07L1113 445.07C1131.8 445.07 1198.17 468.07 1229 479.57L1197 485.07L1120.5 465.07Z" fill="#9D5353"/>
<path d="M874.5 315.57L860 326.07L927 349.07L967 360.57L970.5 363.57C962.667 369.237 947.4 380.57 949 380.57C950.6 380.57 984.667 384.904 1001.5 387.07C1049.5 390.67 1164.17 434.904 1215.5 456.57C1183.9 421.37 1133 387.237 1111.5 374.57C1102.7 368.97 1090.5 365.904 1085.5 365.07C1083.1 363.07 1085.5 363.237 1087 363.57C1103.4 366.37 1115.83 373.404 1120 376.57L1126 375.57C1096.4 349.17 946 324.57 874.5 315.57Z" fill="#584B4B" class="accent1mainbody33" old-color="#584B4B" data-selected="done"/>
<path d="M1027 332.07L889.5 308.57L911.5 293.57L932.5 285.07L947.5 288.57L1024.5 305.07L1133 335.07C1143 337.47 1158.5 348.07 1165 353.07L1189 371.07L1239.55 412.872C1241.36 408.955 1243.13 405.122 1239.55 412.873C1239.38 413.245 1239.2 413.644 1239 414.07C1238.97 414.143 1238.93 414.215 1238.9 414.287C1233.96 424.483 1217.28 425.398 1209.5 424.57L1180 399.07L1162.5 387.07L1146.5 374.57L1129.5 364.07C1122.3 359.27 1097.83 350.737 1086.5 347.07C1075.7 343.47 1042.33 335.57 1027 332.07Z" fill="#808080"/>
<path d="M671 491.07L734 553.07L761.5 526.57L671 491.07Z" fill="#643939" class="accent1mainbody33" old-color="#643939" data-selected="done"/>
<path d="M932.5 683.57L930.5 670.57L915 683.57L1013.5 909.57L1026.5 888.07L994.5 809.57L984 783.07C984.4 781.07 982.833 778.57 982 777.57L977 771.07L959 745.57L955.5 739.07L932.5 683.57Z" fill="#7F7F7F"/>
<path d="M966 671.07C964.4 672.27 947 679.904 938.5 683.57L974 768.57L975.5 771.07L982 778.57L984.5 787.07L1007.5 841.57L1049 933.57L1067 899.07L1022.5 803.07L1004.5 759.57C1001 752.237 994 737.17 994 735.57C994 733.97 988.667 722.904 986 717.57L966 671.07Z" fill="#D9D9D9" class="accent1mainbody33" old-color="#D9D9D9" data-selected="done"/>
</svg>